<svg t="1660620107398" class="icon" viewBox="0 0 1024 1024" version="1.1" xmlns="http://www.w3.org/2000/svg" p-id="3212" width="16" height="16"><path d="M834.868967 175.034479c-7.667633 0.277316-15.22168 0.384763-22.611997 0.384763l-0.031722 0c-194.412828 0-280.05844-89.102341-280.771685-89.870844l-19.426445-21.268396-19.454074 21.268396c-0.848321 0.931209-91.220584 96.714715-303.444057 89.48608l-27.254737-0.930185L161.874249 578.027809c0 105.752556 35.307134 260.001639 340.617701 378.013403l9.508561 3.679809 9.504468-3.679809c305.310567-118.011764 340.617701-272.26187 340.617701-378.013403L862.122681 174.104293 834.868967 175.034479zM477.185588 697.779194 273.371646 517.180999l54.153364-43.88244 108.368126 79.957053c0 0 149.629879-154.797575 294.097178-227.033783l20.635993 23.245424C750.626307 349.46623 570.056766 499.102249 477.185588 697.779194z" p-id="3213"></path></svg>